<?xml version="1.0" encoding="UTF-8" standalone="no"?>
<svg
   width="334.05mm"
   height="182.90mm"
   viewBox="0.0 0.0 334.05 182.90"
   version="1.1"
   id="svg1027"
   sodipodi:docname="boite bus.svg"
   inkscape:version="1.2 (dc2aedaf03, 2022-05-15)"
   xmlns:inkscape="http://www.inkscape.org/namespaces/inkscape"
   xmlns:sodipodi="http://sodipodi.sourceforge.net/DTD/sodipodi-0.dtd"
   xmlns="http://www.w3.org/2000/svg"
   xmlns:svg="http://www.w3.org/2000/svg"
   xmlns:rdf="http://www.w3.org/1999/02/22-rdf-syntax-ns#"
   xmlns:cc="http://creativecommons.org/ns#"
   xmlns:dc="http://purl.org/dc/elements/1.1/">
  <defs
     id="defs1031" />
  <sodipodi:namedview
     id="namedview1029"
     pagecolor="#ffffff"
     bordercolor="#666666"
     borderopacity="1.0"
     inkscape:showpageshadow="2"
     inkscape:pageopacity="0.0"
     inkscape:pagecheckerboard="0"
     inkscape:deskcolor="#d1d1d1"
     inkscape:document-units="mm"
     showgrid="false"
     inkscape:zoom="1"
     inkscape:cx="615"
     inkscape:cy="346"
     inkscape:window-width="1920"
     inkscape:window-height="1017"
     inkscape:window-x="-8"
     inkscape:window-y="-8"
     inkscape:window-maximized="1"
     inkscape:current-layer="svg1027" />
  <!--
ClosedBox - Fully closed box


This box is more of a building block than a finished item.
Use a vector graphics program (like Inkscape) to add holes or adjust the base
plate.

See BasedBox for variant with a base.


Created with Boxes.py (https://festi.info/boxes.py)
Creation date: 2023-02-02 10:04:07
Command line (remove spaces between dashes): boxes ClosedBox - -FingerJoint_angle=90.0 - -FingerJoint_style=rectangular - -FingerJoint_surroundingspaces=2.0 - -FingerJoint_bottom_lip=0.0 - -FingerJoint_edge_width=1.0 - -FingerJoint_extra_length=0.0 - -FingerJoint_finger=2.0 - -FingerJoint_play=0.0 - -FingerJoint_space=2.0 - -FingerJoint_width=1.0 - -x=150.0 - -y=50.0 - -h=40.0 - -outside=0 - -thickness=3.0 - -format=svg - -tabs=0.0 - -debug=0 - -labels=0 - -reference=100 - -inner_corners=loop - -burn=0.05
Url: http://www.festi.info/boxes.py/ClosedBox?FingerJoint_angle=90.0&FingerJoint_style=rectangular&FingerJoint_surroundingspaces=2.0&FingerJoint_bottom_lip=0.0&FingerJoint_edge_width=1.0&FingerJoint_extra_length=0.0&FingerJoint_finger=2.0&FingerJoint_play=0.0&FingerJoint_space=2.0&FingerJoint_width=1.0&x=150.0&y=50.0&h=40.0&outside=0&thickness=3.0&format=svg&tabs=0.0&debug=0&labels=0&reference=100&inner_corners=loop&burn=0.05&render=1
SettingsUrl: http://www.festi.info/boxes.py/ClosedBox?FingerJoint_angle=90.0&FingerJoint_style=rectangular&FingerJoint_surroundingspaces=2.0&FingerJoint_bottom_lip=0.0&FingerJoint_edge_width=1.0&FingerJoint_extra_length=0.0&FingerJoint_finger=2.0&FingerJoint_play=0.0&FingerJoint_space=2.0&FingerJoint_width=1.0&x=150.0&y=50.0&h=40.0&outside=0&thickness=3.0&format=svg&tabs=0.0&debug=0&labels=0&reference=100&inner_corners=loop&burn=0.05
-->
  <title
     id="title1000">ClosedBox</title>
  <metadata
     id="metadata1002">
    <rdf:RDF>
      <cc:Work>
        <dc:title>ClosedBox</dc:title>
        <dc:date>2023-02-02 10:04:07</dc:date>
        <dc:source>http://www.festi.info/boxes.py/ClosedBox?FingerJoint_angle=90.0&amp;FingerJoint_style=rectangular&amp;FingerJoint_surroundingspaces=2.0&amp;FingerJoint_bottom_lip=0.0&amp;FingerJoint_edge_width=1.0&amp;FingerJoint_extra_length=0.0&amp;FingerJoint_finger=2.0&amp;FingerJoint_play=0.0&amp;FingerJoint_space=2.0&amp;FingerJoint_width=1.0&amp;x=150.0&amp;y=50.0&amp;h=40.0&amp;outside=0&amp;thickness=3.0&amp;format=svg&amp;tabs=0.0&amp;debug=0&amp;labels=0&amp;reference=100&amp;inner_corners=loop&amp;burn=0.05&amp;render=1</dc:source>
        <dc:description>Fully closed box

This box is more of a building block than a finished item.
Use a vector graphics program (like Inkscape) to add holes or adjust the base
plate.

See BasedBox for variant with a base.

Created with Boxes.py (https://festi.info/boxes.py)
Command line: boxes ClosedBox --FingerJoint_angle=90.0 --FingerJoint_style=rectangular --FingerJoint_surroundingspaces=2.0 --FingerJoint_bottom_lip=0.0 --FingerJoint_edge_width=1.0 --FingerJoint_extra_length=0.0 --FingerJoint_finger=2.0 --FingerJoint_play=0.0 --FingerJoint_space=2.0 --FingerJoint_width=1.0 --x=150.0 --y=50.0 --h=40.0 --outside=0 --thickness=3.0 --format=svg --tabs=0.0 --debug=0 --labels=0 --reference=100 --inner_corners=loop --burn=0.05
Url: http://www.festi.info/boxes.py/ClosedBox?FingerJoint_angle=90.0&amp;FingerJoint_style=rectangular&amp;FingerJoint_surroundingspaces=2.0&amp;FingerJoint_bottom_lip=0.0&amp;FingerJoint_edge_width=1.0&amp;FingerJoint_extra_length=0.0&amp;FingerJoint_finger=2.0&amp;FingerJoint_play=0.0&amp;FingerJoint_space=2.0&amp;FingerJoint_width=1.0&amp;x=150.0&amp;y=50.0&amp;h=40.0&amp;outside=0&amp;thickness=3.0&amp;format=svg&amp;tabs=0.0&amp;debug=0&amp;labels=0&amp;reference=100&amp;inner_corners=loop&amp;burn=0.05&amp;render=1
SettingsUrl: http://www.festi.info/boxes.py/ClosedBox?FingerJoint_angle=90.0&amp;FingerJoint_style=rectangular&amp;FingerJoint_surroundingspaces=2.0&amp;FingerJoint_bottom_lip=0.0&amp;FingerJoint_edge_width=1.0&amp;FingerJoint_extra_length=0.0&amp;FingerJoint_finger=2.0&amp;FingerJoint_play=0.0&amp;FingerJoint_space=2.0&amp;FingerJoint_width=1.0&amp;x=150.0&amp;y=50.0&amp;h=40.0&amp;outside=0&amp;thickness=3.0&amp;format=svg&amp;tabs=0.0&amp;debug=0&amp;labels=0&amp;reference=100&amp;inner_corners=loop&amp;burn=0.05
</dc:description>
      </cc:Work>
    </rdf:RDF>
  </metadata>
  <g
     id="p-1"
     style="fill:none;stroke-linecap:round;stroke-linejoin:round;stroke:#ff0000;stroke-opacity:1;stroke-width:0.1;stroke-dasharray:none">
    <path
       d="M 13.400 161.300 H 19.400 C 19.428 161.300 19.450 161.278 19.450 161.250 V 158.300 C 19.450 158.250 19.400 158.300 19.450 158.300 H 25.350 C 25.400 158.300 25.350 158.250 25.350 158.300 V 161.250 C 25.350 161.278 25.372 161.300 25.400 161.300 H 31.400 C 31.428 161.300 31.450 161.278 31.450 161.250 V 158.300 C 31.450 158.250 31.400 158.300 31.450 158.300 H 37.350 C 37.400 158.300 37.350 158.250 37.350 158.300 V 161.250 C 37.350 161.278 37.372 161.300 37.400 161.300 H 43.400 C 43.428 161.300 43.450 161.278 43.450 161.250 V 158.300 C 43.450 158.250 43.400 158.300 43.450 158.300 H 49.350 C 49.400 158.300 49.350 158.250 49.350 158.300 V 161.250 C 49.350 161.278 49.372 161.300 49.400 161.300 H 55.400 C 55.428 161.300 55.450 161.278 55.450 161.250 V 158.300 C 55.450 158.250 55.400 158.300 55.450 158.300 H 61.350 C 61.400 158.300 61.350 158.250 61.350 158.300 V 161.250 C 61.350 161.278 61.372 161.300 61.400 161.300 H 67.400 C 67.428 161.300 67.450 161.278 67.450 161.250 V 158.300 C 67.450 158.250 67.400 158.300 67.450 158.300 H 73.350 C 73.400 158.300 73.350 158.250 73.350 158.300 V 161.250 C 73.350 161.278 73.372 161.300 73.400 161.300 H 79.400 C 79.428 161.300 79.450 161.278 79.450 161.250 V 158.300 C 79.450 158.250 79.400 158.300 79.450 158.300 H 85.350 C 85.400 158.300 85.350 158.250 85.350 158.300 V 161.250 C 85.350 161.278 85.372 161.300 85.400 161.300 H 91.400 C 91.428 161.300 91.450 161.278 91.450 161.250 V 158.300 C 91.450 158.250 91.400 158.300 91.450 158.300 H 97.350 C 97.400 158.300 97.350 158.250 97.350 158.300 V 161.250 C 97.350 161.278 97.372 161.300 97.400 161.300 H 103.400 C 103.428 161.300 103.450 161.278 103.450 161.250 V 158.300 C 103.450 158.250 103.400 158.300 103.450 158.300 H 109.350 C 109.400 158.300 109.350 158.250 109.350 158.300 V 161.250 C 109.350 161.278 109.372 161.300 109.400 161.300 H 115.400 C 115.428 161.300 115.450 161.278 115.450 161.250 V 158.300 C 115.450 158.250 115.400 158.300 115.450 158.300 H 121.350 C 121.400 158.300 121.350 158.250 121.350 158.300 V 161.250 C 121.350 161.278 121.372 161.300 121.400 161.300 H 127.400 C 127.428 161.300 127.450 161.278 127.450 161.250 V 158.300 C 127.450 158.250 127.400 158.300 127.450 158.300 H 133.350 C 133.400 158.300 133.350 158.250 133.350 158.300 V 161.250 C 133.350 161.278 133.372 161.300 133.400 161.300 H 139.400 C 139.428 161.300 139.450 161.278 139.450 161.250 V 158.300 C 139.450 158.250 139.400 158.300 139.450 158.300 H 145.350 C 145.400 158.300 145.350 158.250 145.350 158.300 V 161.250 C 145.350 161.278 145.372 161.300 145.400 161.300 H 151.400 C 151.428 161.300 151.450 161.278 151.450 161.250 V 158.300 C 151.450 158.250 151.400 158.300 151.450 158.300 H 157.350 C 157.400 158.300 157.350 158.250 157.350 158.300 V 161.250 C 157.350 161.278 157.372 161.300 157.400 161.300 H 163.400 H 166.400 C 166.428 161.300 166.450 161.278 166.450 161.250 V 158.250 V 147.250 C 166.450 147.222 166.428 147.200 166.400 147.200 H 163.450 C 163.400 147.200 163.450 147.250 163.450 147.200 V 141.300 C 163.450 141.250 163.400 141.300 163.450 141.300 H 166.400 C 166.428 141.300 166.450 141.278 166.450 141.250 V 135.250 C 166.450 135.222 166.428 135.200 166.400 135.200 H 163.450 C 163.400 135.200 163.450 135.250 163.450 135.200 V 129.300 C 163.450 129.250 163.400 129.300 163.450 129.300 H 166.400 C 166.428 129.300 166.450 129.278 166.450 129.250 V 118.250 V 115.250 C 166.450 115.222 166.428 115.200 166.400 115.200 H 163.400 H 157.400 C 157.372 115.200 157.350 115.222 157.350 115.250 V 118.200 C 157.350 118.250 157.400 118.200 157.350 118.200 H 151.450 C 151.400 118.200 151.450 118.250 151.450 118.200 V 115.250 C 151.450 115.222 151.428 115.200 151.400 115.200 H 145.400 C 145.372 115.200 145.350 115.222 145.350 115.250 V 118.200 C 145.350 118.250 145.400 118.200 145.350 118.200 H 139.450 C 139.400 118.200 139.450 118.250 139.450 118.200 V 115.250 C 139.450 115.222 139.428 115.200 139.400 115.200 H 133.400 C 133.372 115.200 133.350 115.222 133.350 115.250 V 118.200 C 133.350 118.250 133.400 118.200 133.350 118.200 H 127.450 C 127.400 118.200 127.450 118.250 127.450 118.200 V 115.250 C 127.450 115.222 127.428 115.200 127.400 115.200 H 121.400 C 121.372 115.200 121.350 115.222 121.350 115.250 V 118.200 C 121.350 118.250 121.400 118.200 121.350 118.200 H 115.450 C 115.400 118.200 115.450 118.250 115.450 118.200 V 115.250 C 115.450 115.222 115.428 115.200 115.400 115.200 H 109.400 C 109.372 115.200 109.350 115.222 109.350 115.250 V 118.200 C 109.350 118.250 109.400 118.200 109.350 118.200 H 103.450 C 103.400 118.200 103.450 118.250 103.450 118.200 V 115.250 C 103.450 115.222 103.428 115.200 103.400 115.200 H 97.400 C 97.372 115.200 97.350 115.222 97.350 115.250 V 118.200 C 97.350 118.250 97.400 118.200 97.350 118.200 H 91.450 C 91.400 118.200 91.450 118.250 91.450 118.200 V 115.250 C 91.450 115.222 91.428 115.200 91.400 115.200 H 85.400 C 85.372 115.200 85.350 115.222 85.350 115.250 V 118.200 C 85.350 118.250 85.400 118.200 85.350 118.200 H 79.450 C 79.400 118.200 79.450 118.250 79.450 118.200 V 115.250 C 79.450 115.222 79.428 115.200 79.400 115.200 H 73.400 C 73.372 115.200 73.350 115.222 73.350 115.250 V 118.200 C 73.350 118.250 73.400 118.200 73.350 118.200 H 67.450 C 67.400 118.200 67.450 118.250 67.450 118.200 V 115.250 C 67.450 115.222 67.428 115.200 67.400 115.200 H 61.400 C 61.372 115.200 61.350 115.222 61.350 115.250 V 118.200 C 61.350 118.250 61.400 118.200 61.350 118.200 H 55.450 C 55.400 118.200 55.450 118.250 55.450 118.200 V 115.250 C 55.450 115.222 55.428 115.200 55.400 115.200 H 49.400 C 49.372 115.200 49.350 115.222 49.350 115.250 V 118.200 C 49.350 118.250 49.400 118.200 49.350 118.200 H 43.450 C 43.400 118.200 43.450 118.250 43.450 118.200 V 115.250 C 43.450 115.222 43.428 115.200 43.400 115.200 H 37.400 C 37.372 115.200 37.350 115.222 37.350 115.250 V 118.200 C 37.350 118.250 37.400 118.200 37.350 118.200 H 31.450 C 31.400 118.200 31.450 118.250 31.450 118.200 V 115.250 C 31.450 115.222 31.428 115.200 31.400 115.200 H 25.400 C 25.372 115.200 25.350 115.222 25.350 115.250 V 118.200 C 25.350 118.250 25.400 118.200 25.350 118.200 H 19.450 C 19.400 118.200 19.450 118.250 19.450 118.200 V 115.250 C 19.450 115.222 19.428 115.200 19.400 115.200 H 13.400 H 10.400 C 10.372 115.200 10.350 115.222 10.350 115.250 V 118.250 V 129.250 C 10.350 129.278 10.372 129.300 10.400 129.300 H 13.350 C 13.400 129.300 13.350 129.250 13.350 129.300 V 135.200 C 13.350 135.250 13.400 135.200 13.350 135.200 H 10.400 C 10.372 135.200 10.350 135.222 10.350 135.250 V 141.250 C 10.350 141.278 10.372 141.300 10.400 141.300 H 13.350 C 13.400 141.300 13.350 141.250 13.350 141.300 V 147.200 C 13.350 147.250 13.400 147.200 13.350 147.200 H 10.400 C 10.372 147.200 10.350 147.222 10.350 147.250 V 158.250 V 161.250 C 10.350 161.278 10.372 161.300 10.400 161.300 H 13.400 Z"
       stroke="rgb(0,0,0)"
       stroke-width="0.10"
       id="path1009"
       style="stroke:#ff0000;stroke-opacity:1;stroke-width:0.1;stroke-dasharray:none" />
  </g>
  <g
     id="p-2"
     style="fill:none;stroke-linecap:round;stroke-linejoin:round;stroke:#ff0000;stroke-opacity:1;stroke-width:0.1;stroke-dasharray:none">
    <path
       d="M 171.000 161.300 H 181.000 C 181.028 161.300 181.050 161.278 181.050 161.250 V 158.300 C 181.050 158.250 181.000 158.300 181.050 158.300 H 186.950 C 187.000 158.300 186.950 158.250 186.950 158.300 V 161.250 C 186.950 161.278 186.972 161.300 187.000 161.300 H 193.000 C 193.028 161.300 193.050 161.278 193.050 161.250 V 158.300 C 193.050 158.250 193.000 158.300 193.050 158.300 H 198.950 C 199.000 158.300 198.950 158.250 198.950 158.300 V 161.250 C 198.950 161.278 198.972 161.300 199.000 161.300 H 205.000 C 205.028 161.300 205.050 161.278 205.050 161.250 V 158.300 C 205.050 158.250 205.000 158.300 205.050 158.300 H 210.950 C 211.000 158.300 210.950 158.250 210.950 158.300 V 161.250 C 210.950 161.278 210.972 161.300 211.000 161.300 H 221.000 C 221.028 161.300 221.050 161.278 221.050 161.250 V 158.250 V 147.300 C 221.050 147.250 221.000 147.300 221.050 147.300 H 224.000 C 224.028 147.300 224.050 147.278 224.050 147.250 V 141.250 C 224.050 141.222 224.028 141.200 224.000 141.200 H 221.050 C 221.000 141.200 221.050 141.250 221.050 141.200 V 135.300 C 221.050 135.250 221.000 135.300 221.050 135.300 H 224.000 C 224.028 135.300 224.050 135.278 224.050 135.250 V 129.250 C 224.050 129.222 224.028 129.200 224.000 129.200 H 221.050 C 221.000 129.200 221.050 129.250 221.050 129.200 V 118.250 V 115.250 C 221.050 115.222 221.028 115.200 221.000 115.200 H 211.000 C 210.972 115.200 210.950 115.222 210.950 115.250 V 118.200 C 210.950 118.250 211.000 118.200 210.950 118.200 H 205.050 C 205.000 118.200 205.050 118.250 205.050 118.200 V 115.250 C 205.050 115.222 205.028 115.200 205.000 115.200 H 199.000 C 198.972 115.200 198.950 115.222 198.950 115.250 V 118.200 C 198.950 118.250 199.000 118.200 198.950 118.200 H 193.050 C 193.000 118.200 193.050 118.250 193.050 118.200 V 115.250 C 193.050 115.222 193.028 115.200 193.000 115.200 H 187.000 C 186.972 115.200 186.950 115.222 186.950 115.250 V 118.200 C 186.950 118.250 187.000 118.200 186.950 118.200 H 181.050 C 181.000 118.200 181.050 118.250 181.050 118.200 V 115.250 C 181.050 115.222 181.028 115.200 181.000 115.200 H 171.000 C 170.972 115.200 170.950 115.222 170.950 115.250 V 118.250 V 129.200 C 170.950 129.250 171.000 129.200 170.950 129.200 H 168.000 C 167.972 129.200 167.950 129.222 167.950 129.250 V 135.250 C 167.950 135.278 167.972 135.300 168.000 135.300 H 170.950 C 171.000 135.300 170.950 135.250 170.950 135.300 V 141.200 C 170.950 141.250 171.000 141.200 170.950 141.200 H 168.000 C 167.972 141.200 167.950 141.222 167.950 141.250 V 147.250 C 167.950 147.278 167.972 147.300 168.000 147.300 H 170.950 C 171.000 147.300 170.950 147.250 170.950 147.300 V 158.250 V 161.250 C 170.950 161.278 170.972 161.300 171.000 161.300 Z"
       stroke="rgb(0,0,0)"
       stroke-width="0.10"
       id="path1012"
       style="stroke:#ff0000;stroke-opacity:1;stroke-width:0.1;stroke-dasharray:none" />
  </g>
  <g
     id="p-3"
     style="fill:none;stroke-linecap:round;stroke-linejoin:round;stroke:#ff0000;stroke-opacity:1;stroke-width:0.1;stroke-dasharray:none">
    <path
       d="M 171.000 113.700 H 181.000 C 181.028 113.700 181.050 113.678 181.050 113.650 V 110.700 C 181.050 110.650 181.000 110.700 181.050 110.700 H 186.950 C 187.000 110.700 186.950 110.650 186.950 110.700 V 113.650 C 186.950 113.678 186.972 113.700 187.000 113.700 H 193.000 C 193.028 113.700 193.050 113.678 193.050 113.650 V 110.700 C 193.050 110.650 193.000 110.700 193.050 110.700 H 198.950 C 199.000 110.700 198.950 110.650 198.950 110.700 V 113.650 C 198.950 113.678 198.972 113.700 199.000 113.700 H 205.000 C 205.028 113.700 205.050 113.678 205.050 113.650 V 110.700 C 205.050 110.650 205.000 110.700 205.050 110.700 H 210.950 C 211.000 110.700 210.950 110.650 210.950 110.700 V 113.650 C 210.950 113.678 210.972 113.700 211.000 113.700 H 221.000 C 221.028 113.700 221.050 113.678 221.050 113.650 V 110.650 V 99.700 C 221.050 99.650 221.000 99.700 221.050 99.700 H 224.000 C 224.028 99.700 224.050 99.678 224.050 99.650 V 93.650 C 224.050 93.622 224.028 93.600 224.000 93.600 H 221.050 C 221.000 93.600 221.050 93.650 221.050 93.600 V 87.700 C 221.050 87.650 221.000 87.700 221.050 87.700 H 224.000 C 224.028 87.700 224.050 87.678 224.050 87.650 V 81.650 C 224.050 81.622 224.028 81.600 224.000 81.600 H 221.050 C 221.000 81.600 221.050 81.650 221.050 81.600 V 70.650 V 67.650 C 221.050 67.622 221.028 67.600 221.000 67.600 H 211.000 C 210.972 67.600 210.950 67.622 210.950 67.650 V 70.600 C 210.950 70.650 211.000 70.600 210.950 70.600 H 205.050 C 205.000 70.600 205.050 70.650 205.050 70.600 V 67.650 C 205.050 67.622 205.028 67.600 205.000 67.600 H 199.000 C 198.972 67.600 198.950 67.622 198.950 67.650 V 70.600 C 198.950 70.650 199.000 70.600 198.950 70.600 H 193.050 C 193.000 70.600 193.050 70.650 193.050 70.600 V 67.650 C 193.050 67.622 193.028 67.600 193.000 67.600 H 187.000 C 186.972 67.600 186.950 67.622 186.950 67.650 V 70.600 C 186.950 70.650 187.000 70.600 186.950 70.600 H 181.050 C 181.000 70.600 181.050 70.650 181.050 70.600 V 67.650 C 181.050 67.622 181.028 67.600 181.000 67.600 H 171.000 C 170.972 67.600 170.950 67.622 170.950 67.650 V 70.650 V 81.600 C 170.950 81.650 171.000 81.600 170.950 81.600 H 168.000 C 167.972 81.600 167.950 81.622 167.950 81.650 V 87.650 C 167.950 87.678 167.972 87.700 168.000 87.700 H 170.950 C 171.000 87.700 170.950 87.650 170.950 87.700 V 93.600 C 170.950 93.650 171.000 93.600 170.950 93.600 H 168.000 C 167.972 93.600 167.950 93.622 167.950 93.650 V 99.650 C 167.950 99.678 167.972 99.700 168.000 99.700 H 170.950 C 171.000 99.700 170.950 99.650 170.950 99.700 V 110.650 V 113.650 C 170.950 113.678 170.972 113.700 171.000 113.700 Z"
       stroke="rgb(0,0,0)"
       stroke-width="0.10"
       id="path1015"
       style="stroke:#ff0000;stroke-opacity:1;stroke-width:0.1;stroke-dasharray:none" />
  </g>
  <g
     id="p-4"
     style="fill:none;stroke-linecap:round;stroke-linejoin:round;stroke:#ff0000;stroke-opacity:1;stroke-width:0.1;stroke-dasharray:none">
    <path
       d="M 13.400 113.700 H 19.400 C 19.428 113.700 19.450 113.678 19.450 113.650 V 110.700 C 19.450 110.650 19.400 110.700 19.450 110.700 H 25.350 C 25.400 110.700 25.350 110.650 25.350 110.700 V 113.650 C 25.350 113.678 25.372 113.700 25.400 113.700 H 31.400 C 31.428 113.700 31.450 113.678 31.450 113.650 V 110.700 C 31.450 110.650 31.400 110.700 31.450 110.700 H 37.350 C 37.400 110.700 37.350 110.650 37.350 110.700 V 113.650 C 37.350 113.678 37.372 113.700 37.400 113.700 H 43.400 C 43.428 113.700 43.450 113.678 43.450 113.650 V 110.700 C 43.450 110.650 43.400 110.700 43.450 110.700 H 49.350 C 49.400 110.700 49.350 110.650 49.350 110.700 V 113.650 C 49.350 113.678 49.372 113.700 49.400 113.700 H 55.400 C 55.428 113.700 55.450 113.678 55.450 113.650 V 110.700 C 55.450 110.650 55.400 110.700 55.450 110.700 H 61.350 C 61.400 110.700 61.350 110.650 61.350 110.700 V 113.650 C 61.350 113.678 61.372 113.700 61.400 113.700 H 67.400 C 67.428 113.700 67.450 113.678 67.450 113.650 V 110.700 C 67.450 110.650 67.400 110.700 67.450 110.700 H 73.350 C 73.400 110.700 73.350 110.650 73.350 110.700 V 113.650 C 73.350 113.678 73.372 113.700 73.400 113.700 H 79.400 C 79.428 113.700 79.450 113.678 79.450 113.650 V 110.700 C 79.450 110.650 79.400 110.700 79.450 110.700 H 85.350 C 85.400 110.700 85.350 110.650 85.350 110.700 V 113.650 C 85.350 113.678 85.372 113.700 85.400 113.700 H 91.400 C 91.428 113.700 91.450 113.678 91.450 113.650 V 110.700 C 91.450 110.650 91.400 110.700 91.450 110.700 H 97.350 C 97.400 110.700 97.350 110.650 97.350 110.700 V 113.650 C 97.350 113.678 97.372 113.700 97.400 113.700 H 103.400 C 103.428 113.700 103.450 113.678 103.450 113.650 V 110.700 C 103.450 110.650 103.400 110.700 103.450 110.700 H 109.350 C 109.400 110.700 109.350 110.650 109.350 110.700 V 113.650 C 109.350 113.678 109.372 113.700 109.400 113.700 H 115.400 C 115.428 113.700 115.450 113.678 115.450 113.650 V 110.700 C 115.450 110.650 115.400 110.700 115.450 110.700 H 121.350 C 121.400 110.700 121.350 110.650 121.350 110.700 V 113.650 C 121.350 113.678 121.372 113.700 121.400 113.700 H 127.400 C 127.428 113.700 127.450 113.678 127.450 113.650 V 110.700 C 127.450 110.650 127.400 110.700 127.450 110.700 H 133.350 C 133.400 110.700 133.350 110.650 133.350 110.700 V 113.650 C 133.350 113.678 133.372 113.700 133.400 113.700 H 139.400 C 139.428 113.700 139.450 113.678 139.450 113.650 V 110.700 C 139.450 110.650 139.400 110.700 139.450 110.700 H 145.350 C 145.400 110.700 145.350 110.650 145.350 110.700 V 113.650 C 145.350 113.678 145.372 113.700 145.400 113.700 H 151.400 C 151.428 113.700 151.450 113.678 151.450 113.650 V 110.700 C 151.450 110.650 151.400 110.700 151.450 110.700 H 157.350 C 157.400 110.700 157.350 110.650 157.350 110.700 V 113.650 C 157.350 113.678 157.372 113.700 157.400 113.700 H 163.400 H 166.400 C 166.428 113.700 166.450 113.678 166.450 113.650 V 110.650 V 99.650 C 166.450 99.622 166.428 99.600 166.400 99.600 H 163.450 C 163.400 99.600 163.450 99.650 163.450 99.600 V 93.700 C 163.450 93.650 163.400 93.700 163.450 93.700 H 166.400 C 166.428 93.700 166.450 93.678 166.450 93.650 V 87.650 C 166.450 87.622 166.428 87.600 166.400 87.600 H 163.450 C 163.400 87.600 163.450 87.650 163.450 87.600 V 81.700 C 163.450 81.650 163.400 81.700 163.450 81.700 H 166.400 C 166.428 81.700 166.450 81.678 166.450 81.650 V 70.650 V 67.650 C 166.450 67.622 166.428 67.600 166.400 67.600 H 163.400 H 157.400 C 157.372 67.600 157.350 67.622 157.350 67.650 V 70.600 C 157.350 70.650 157.400 70.600 157.350 70.600 H 151.450 C 151.400 70.600 151.450 70.650 151.450 70.600 V 67.650 C 151.450 67.622 151.428 67.600 151.400 67.600 H 145.400 C 145.372 67.600 145.350 67.622 145.350 67.650 V 70.600 C 145.350 70.650 145.400 70.600 145.350 70.600 H 139.450 C 139.400 70.600 139.450 70.650 139.450 70.600 V 67.650 C 139.450 67.622 139.428 67.600 139.400 67.600 H 133.400 C 133.372 67.600 133.350 67.622 133.350 67.650 V 70.600 C 133.350 70.650 133.400 70.600 133.350 70.600 H 127.450 C 127.400 70.600 127.450 70.650 127.450 70.600 V 67.650 C 127.450 67.622 127.428 67.600 127.400 67.600 H 121.400 C 121.372 67.600 121.350 67.622 121.350 67.650 V 70.600 C 121.350 70.650 121.400 70.600 121.350 70.600 H 115.450 C 115.400 70.600 115.450 70.650 115.450 70.600 V 67.650 C 115.450 67.622 115.428 67.600 115.400 67.600 H 109.400 C 109.372 67.600 109.350 67.622 109.350 67.650 V 70.600 C 109.350 70.650 109.400 70.600 109.350 70.600 H 103.450 C 103.400 70.600 103.450 70.650 103.450 70.600 V 67.650 C 103.450 67.622 103.428 67.600 103.400 67.600 H 97.400 C 97.372 67.600 97.350 67.622 97.350 67.650 V 70.600 C 97.350 70.650 97.400 70.600 97.350 70.600 H 91.450 C 91.400 70.600 91.450 70.650 91.450 70.600 V 67.650 C 91.450 67.622 91.428 67.600 91.400 67.600 H 85.400 C 85.372 67.600 85.350 67.622 85.350 67.650 V 70.600 C 85.350 70.650 85.400 70.600 85.350 70.600 H 79.450 C 79.400 70.600 79.450 70.650 79.450 70.600 V 67.650 C 79.450 67.622 79.428 67.600 79.400 67.600 H 73.400 C 73.372 67.600 73.350 67.622 73.350 67.650 V 70.600 C 73.350 70.650 73.400 70.600 73.350 70.600 H 67.450 C 67.400 70.600 67.450 70.650 67.450 70.600 V 67.650 C 67.450 67.622 67.428 67.600 67.400 67.600 H 61.400 C 61.372 67.600 61.350 67.622 61.350 67.650 V 70.600 C 61.350 70.650 61.400 70.600 61.350 70.600 H 55.450 C 55.400 70.600 55.450 70.650 55.450 70.600 V 67.650 C 55.450 67.622 55.428 67.600 55.400 67.600 H 49.400 C 49.372 67.600 49.350 67.622 49.350 67.650 V 70.600 C 49.350 70.650 49.400 70.600 49.350 70.600 H 43.450 C 43.400 70.600 43.450 70.650 43.450 70.600 V 67.650 C 43.450 67.622 43.428 67.600 43.400 67.600 H 37.400 C 37.372 67.600 37.350 67.622 37.350 67.650 V 70.600 C 37.350 70.650 37.400 70.600 37.350 70.600 H 31.450 C 31.400 70.600 31.450 70.650 31.450 70.600 V 67.650 C 31.450 67.622 31.428 67.600 31.400 67.600 H 25.400 C 25.372 67.600 25.350 67.622 25.350 67.650 V 70.600 C 25.350 70.650 25.400 70.600 25.350 70.600 H 19.450 C 19.400 70.600 19.450 70.650 19.450 70.600 V 67.650 C 19.450 67.622 19.428 67.600 19.400 67.600 H 13.400 H 10.400 C 10.372 67.600 10.350 67.622 10.350 67.650 V 70.650 V 81.650 C 10.350 81.678 10.372 81.700 10.400 81.700 H 13.350 C 13.400 81.700 13.350 81.650 13.350 81.700 V 87.600 C 13.350 87.650 13.400 87.600 13.350 87.600 H 10.400 C 10.372 87.600 10.350 87.622 10.350 87.650 V 93.650 C 10.350 93.678 10.372 93.700 10.400 93.700 H 13.350 C 13.400 93.700 13.350 93.650 13.350 93.700 V 99.600 C 13.350 99.650 13.400 99.600 13.350 99.600 H 10.400 C 10.372 99.600 10.350 99.622 10.350 99.650 V 110.650 V 113.650 C 10.350 113.678 10.372 113.700 10.400 113.700 H 13.400 Z"
       stroke="rgb(0,0,0)"
       stroke-width="0.10"
       id="path1018"
       style="stroke:#ff0000;stroke-opacity:1;stroke-width:0.1;stroke-dasharray:none" />
  </g>
  <g
     id="p-5"
     style="fill:none;stroke-linecap:round;stroke-linejoin:round;stroke:#ff0000;stroke-opacity:1;stroke-width:0.1;stroke-dasharray:none"
     transform="translate(0.44403687)">
    <path
       d="m 13.4,63.1 h 5.95 c 0.05,0 0,-0.05 0,0 v 2.95 c 0,0.028 0.022,0.05 0.05,0.05 h 6 c 0.028,0 0.05,-0.022 0.05,-0.05 V 63.1 c 0,-0.05 -0.05,0 0,0 h 5.9 c 0.05,0 0,-0.05 0,0 v 2.95 c 0,0.028 0.022,0.05 0.05,0.05 h 6 c 0.028,0 0.05,-0.022 0.05,-0.05 V 63.1 c 0,-0.05 -0.05,0 0,0 h 5.9 c 0.05,0 0,-0.05 0,0 v 2.95 c 0,0.028 0.022,0.05 0.05,0.05 h 6 c 0.028,0 0.05,-0.022 0.05,-0.05 V 63.1 c 0,-0.05 -0.05,0 0,0 h 5.9 c 0.05,0 0,-0.05 0,0 v 2.95 c 0,0.028 0.022,0.05 0.05,0.05 h 6 c 0.028,0 0.05,-0.022 0.05,-0.05 V 63.1 c 0,-0.05 -0.05,0 0,0 h 5.9 c 0.05,0 0,-0.05 0,0 v 2.95 c 0,0.028 0.022,0.05 0.05,0.05 h 6 c 0.028,0 0.05,-0.022 0.05,-0.05 V 63.1 c 0,-0.05 -0.05,0 0,0 h 5.9 c 0.05,0 0,-0.05 0,0 v 2.95 c 0,0.028 0.022,0.05 0.05,0.05 h 6 c 0.028,0 0.05,-0.022 0.05,-0.05 V 63.1 c 0,-0.05 -0.05,0 0,0 h 5.9 c 0.05,0 0,-0.05 0,0 v 2.95 c 0,0.028 0.022,0.05 0.05,0.05 h 6 c 0.028,0 0.05,-0.022 0.05,-0.05 V 63.1 c 0,-0.05 -0.05,0 0,0 h 5.9 c 0.05,0 0,-0.05 0,0 v 2.95 c 0,0.028 0.022,0.05 0.05,0.05 h 6 c 0.028,0 0.05,-0.022 0.05,-0.05 V 63.1 c 0,-0.05 -0.05,0 0,0 h 5.9 c 0.05,0 0,-0.05 0,0 v 2.95 c 0,0.028 0.022,0.05 0.05,0.05 h 6 c 0.028,0 0.05,-0.022 0.05,-0.05 V 63.1 c 0,-0.05 -0.05,0 0,0 h 5.9 c 0.05,0 0,-0.05 0,0 v 2.95 c 0,0.028 0.022,0.05 0.05,0.05 h 6 c 0.028,0 0.05,-0.022 0.05,-0.05 V 63.1 c 0,-0.05 -0.05,0 0,0 h 5.9 c 0.05,0 0,-0.05 0,0 v 2.95 c 0,0.028 0.022,0.05 0.05,0.05 h 6 c 0.028,0 0.05,-0.022 0.05,-0.05 V 63.1 c 0,-0.05 -0.05,0 0,0 h 5.9 c 0.05,0 0,-0.05 0,0 v 2.95 c 0,0.028 0.022,0.05 0.05,0.05 h 6 c 0.028,0 0.05,-0.022 0.05,-0.05 V 63.1 c 0,-0.05 -0.05,0 0,0 h 5.95 c 0.028,0 0.05,-0.022 0.05,-0.05 V 53.1 c 0,-0.05 -0.05,0 0,0 h 2.95 c 0.028,0 0.05,-0.022 0.05,-0.05 v -6 c 0,-0.028 -0.022,-0.05 -0.05,-0.05 h -2.95 c -0.05,0 0,0.05 0,0 v -5.9 c 0,-0.05 -0.05,0 0,0 h 2.95 c 0.028,0 0.05,-0.022 0.05,-0.05 v -6 c 0,-0.028 -0.022,-0.05 -0.05,-0.05 h -2.95 c -0.05,0 0,0.05 0,0 v -5.9 c 0,-0.05 -0.05,0 0,0 h 2.95 c 0.028,0 0.05,-0.022 0.05,-0.05 v -6 c 0,-0.028 -0.022,-0.05 -0.05,-0.05 h -2.95 c -0.05,0 0,0.05 0,0 v -9.95 c 0,-0.028 -0.022,-0.05 -0.05,-0.05 h -5.95 c -0.05,0 0,0.05 0,0 v -2.95 c 0,-0.028 -0.022,-0.05 -0.05,-0.05 h -6 c -0.028,0 -0.05,0.022 -0.05,0.05 V 13 c 0,0.05 0.05,0 0,0 h -5.9 c -0.05,0 0,0.05 0,0 v -2.95 c 0,-0.028 -0.022,-0.05 -0.05,-0.05 h -6 c -0.028,0 -0.05,0.022 -0.05,0.05 V 13 c 0,0.05 0.05,0 0,0 h -5.9 c -0.05,0 0,0.05 0,0 v -2.95 c 0,-0.028 -0.022,-0.05 -0.05,-0.05 h -6 c -0.028,0 -0.05,0.022 -0.05,0.05 V 13 c 0,0.05 0.05,0 0,0 h -5.9 c -0.05,0 0,0.05 0,0 v -2.95 c 0,-0.028 -0.022,-0.05 -0.05,-0.05 h -6 c -0.028,0 -0.05,0.022 -0.05,0.05 V 13 c 0,0.05 0.05,0 0,0 h -5.9 c -0.05,0 0,0.05 0,0 v -2.95 c 0,-0.028 -0.022,-0.05 -0.05,-0.05 h -6 c -0.028,0 -0.05,0.022 -0.05,0.05 V 13 c 0,0.05 0.05,0 0,0 h -5.9 c -0.05,0 0,0.05 0,0 V 10.05 C 97.45,10.022 97.428,10 97.4,10 h -6 c -0.028,0 -0.05,0.022 -0.05,0.05 V 13 c 0,0.05 0.05,0 0,0 h -5.9 c -0.05,0 0,0.05 0,0 V 10.05 C 85.45,10.022 85.428,10 85.4,10 h -6 c -0.028,0 -0.05,0.022 -0.05,0.05 V 13 c 0,0.05 0.05,0 0,0 h -5.9 c -0.05,0 0,0.05 0,0 V 10.05 C 73.45,10.022 73.428,10 73.4,10 h -6 c -0.028,0 -0.05,0.022 -0.05,0.05 V 13 c 0,0.05 0.05,0 0,0 h -5.9 c -0.05,0 0,0.05 0,0 V 10.05 C 61.45,10.022 61.428,10 61.4,10 h -6 c -0.028,0 -0.05,0.022 -0.05,0.05 V 13 c 0,0.05 0.05,0 0,0 h -5.9 c -0.05,0 0,0.05 0,0 V 10.05 C 49.45,10.022 49.428,10 49.4,10 h -6 c -0.028,0 -0.05,0.022 -0.05,0.05 V 13 c 0,0.05 0.05,0 0,0 h -5.9 c -0.05,0 0,0.05 0,0 V 10.05 C 37.45,10.022 37.428,10 37.4,10 h -6 c -0.028,0 -0.05,0.022 -0.05,0.05 V 13 c 0,0.05 0.05,0 0,0 h -5.9 c -0.05,0 0,0.05 0,0 V 10.05 C 25.45,10.022 25.428,10 25.4,10 h -6 c -0.028,0 -0.05,0.022 -0.05,0.05 V 13 c 0,0.05 0.05,0 0,0 H 13.4 c -0.028,0 -0.05,0.022 -0.05,0.05 V 23 c 0,0.05 0.05,0 0,0 H 10.4 c -0.028,0 -0.05,0.022 -0.05,0.05 v 6 c 0,0.028 0.022,0.05 0.05,0.05 h 2.95 c 0.05,0 0,-0.05 0,0 V 35 c 0,0.05 0.05,0 0,0 H 10.4 c -0.028,0 -0.05,0.022 -0.05,0.05 v 6 c 0,0.028 0.022,0.05 0.05,0.05 h 2.95 c 0.05,0 0,-0.05 0,0 V 47 c 0,0.05 0.05,0 0,0 H 10.4 c -0.028,0 -0.05,0.022 -0.05,0.05 v 6 c 0,0.028 0.022,0.05 0.05,0.05 h 2.95 c 0.05,0 0,-0.05 0,0 v 9.95 c 0,0.028 0.022,0.05 0.05,0.05 z"
       stroke="#000000"
       stroke-width="0.1"
       id="path1021"
       style="stroke:#ff0000;stroke-opacity:1;stroke-width:0.1;stroke-dasharray:none" />
  </g>
  <g
     id="p-6"
     style="fill:none;stroke-linecap:round;stroke-linejoin:round;stroke:#ff0000;stroke-opacity:1;stroke-width:0.1;stroke-dasharray:none">
    <path
       d="M 171.000 63.100 H 176.950 C 177.000 63.100 176.950 63.050 176.950 63.100 V 66.050 C 176.950 66.078 176.972 66.100 177.000 66.100 H 183.000 C 183.028 66.100 183.050 66.078 183.050 66.050 V 63.100 C 183.050 63.050 183.000 63.100 183.050 63.100 H 188.950 C 189.000 63.100 188.950 63.050 188.950 63.100 V 66.050 C 188.950 66.078 188.972 66.100 189.000 66.100 H 195.000 C 195.028 66.100 195.050 66.078 195.050 66.050 V 63.100 C 195.050 63.050 195.000 63.100 195.050 63.100 H 200.950 C 201.000 63.100 200.950 63.050 200.950 63.100 V 66.050 C 200.950 66.078 200.972 66.100 201.000 66.100 H 207.000 C 207.028 66.100 207.050 66.078 207.050 66.050 V 63.100 C 207.050 63.050 207.000 63.100 207.050 63.100 H 212.950 C 213.000 63.100 212.950 63.050 212.950 63.100 V 66.050 C 212.950 66.078 212.972 66.100 213.000 66.100 H 219.000 C 219.028 66.100 219.050 66.078 219.050 66.050 V 63.100 C 219.050 63.050 219.000 63.100 219.050 63.100 H 224.950 C 225.000 63.100 224.950 63.050 224.950 63.100 V 66.050 C 224.950 66.078 224.972 66.100 225.000 66.100 H 231.000 C 231.028 66.100 231.050 66.078 231.050 66.050 V 63.100 C 231.050 63.050 231.000 63.100 231.050 63.100 H 236.950 C 237.000 63.100 236.950 63.050 236.950 63.100 V 66.050 C 236.950 66.078 236.972 66.100 237.000 66.100 H 243.000 C 243.028 66.100 243.050 66.078 243.050 66.050 V 63.100 C 243.050 63.050 243.000 63.100 243.050 63.100 H 248.950 C 249.000 63.100 248.950 63.050 248.950 63.100 V 66.050 C 248.950 66.078 248.972 66.100 249.000 66.100 H 255.000 C 255.028 66.100 255.050 66.078 255.050 66.050 V 63.100 C 255.050 63.050 255.000 63.100 255.050 63.100 H 260.950 C 261.000 63.100 260.950 63.050 260.950 63.100 V 66.050 C 260.950 66.078 260.972 66.100 261.000 66.100 H 267.000 C 267.028 66.100 267.050 66.078 267.050 66.050 V 63.100 C 267.050 63.050 267.000 63.100 267.050 63.100 H 272.950 C 273.000 63.100 272.950 63.050 272.950 63.100 V 66.050 C 272.950 66.078 272.972 66.100 273.000 66.100 H 279.000 C 279.028 66.100 279.050 66.078 279.050 66.050 V 63.100 C 279.050 63.050 279.000 63.100 279.050 63.100 H 284.950 C 285.000 63.100 284.950 63.050 284.950 63.100 V 66.050 C 284.950 66.078 284.972 66.100 285.000 66.100 H 291.000 C 291.028 66.100 291.050 66.078 291.050 66.050 V 63.100 C 291.050 63.050 291.000 63.100 291.050 63.100 H 296.950 C 297.000 63.100 296.950 63.050 296.950 63.100 V 66.050 C 296.950 66.078 296.972 66.100 297.000 66.100 H 303.000 C 303.028 66.100 303.050 66.078 303.050 66.050 V 63.100 C 303.050 63.050 303.000 63.100 303.050 63.100 H 308.950 C 309.000 63.100 308.950 63.050 308.950 63.100 V 66.050 C 308.950 66.078 308.972 66.100 309.000 66.100 H 315.000 C 315.028 66.100 315.050 66.078 315.050 66.050 V 63.100 C 315.050 63.050 315.000 63.100 315.050 63.100 H 321.000 C 321.028 63.100 321.050 63.078 321.050 63.050 V 53.100 C 321.050 53.050 321.000 53.100 321.050 53.100 H 324.000 C 324.028 53.100 324.050 53.078 324.050 53.050 V 47.050 C 324.050 47.022 324.028 47.000 324.000 47.000 H 321.050 C 321.000 47.000 321.050 47.050 321.050 47.000 V 41.100 C 321.050 41.050 321.000 41.100 321.050 41.100 H 324.000 C 324.028 41.100 324.050 41.078 324.050 41.050 V 35.050 C 324.050 35.022 324.028 35.000 324.000 35.000 H 321.050 C 321.000 35.000 321.050 35.050 321.050 35.000 V 29.100 C 321.050 29.050 321.000 29.100 321.050 29.100 H 324.000 C 324.028 29.100 324.050 29.078 324.050 29.050 V 23.050 C 324.050 23.022 324.028 23.000 324.000 23.000 H 321.050 C 321.000 23.000 321.050 23.050 321.050 23.000 V 13.050 C 321.050 13.022 321.028 13.000 321.000 13.000 H 315.050 C 315.000 13.000 315.050 13.050 315.050 13.000 V 10.050 C 315.050 10.022 315.028 10.000 315.000 10.000 H 309.000 C 308.972 10.000 308.950 10.022 308.950 10.050 V 13.000 C 308.950 13.050 309.000 13.000 308.950 13.000 H 303.050 C 303.000 13.000 303.050 13.050 303.050 13.000 V 10.050 C 303.050 10.022 303.028 10.000 303.000 10.000 H 297.000 C 296.972 10.000 296.950 10.022 296.950 10.050 V 13.000 C 296.950 13.050 297.000 13.000 296.950 13.000 H 291.050 C 291.000 13.000 291.050 13.050 291.050 13.000 V 10.050 C 291.050 10.022 291.028 10.000 291.000 10.000 H 285.000 C 284.972 10.000 284.950 10.022 284.950 10.050 V 13.000 C 284.950 13.050 285.000 13.000 284.950 13.000 H 279.050 C 279.000 13.000 279.050 13.050 279.050 13.000 V 10.050 C 279.050 10.022 279.028 10.000 279.000 10.000 H 273.000 C 272.972 10.000 272.950 10.022 272.950 10.050 V 13.000 C 272.950 13.050 273.000 13.000 272.950 13.000 H 267.050 C 267.000 13.000 267.050 13.050 267.050 13.000 V 10.050 C 267.050 10.022 267.028 10.000 267.000 10.000 H 261.000 C 260.972 10.000 260.950 10.022 260.950 10.050 V 13.000 C 260.950 13.050 261.000 13.000 260.950 13.000 H 255.050 C 255.000 13.000 255.050 13.050 255.050 13.000 V 10.050 C 255.050 10.022 255.028 10.000 255.000 10.000 H 249.000 C 248.972 10.000 248.950 10.022 248.950 10.050 V 13.000 C 248.950 13.050 249.000 13.000 248.950 13.000 H 243.050 C 243.000 13.000 243.050 13.050 243.050 13.000 V 10.050 C 243.050 10.022 243.028 10.000 243.000 10.000 H 237.000 C 236.972 10.000 236.950 10.022 236.950 10.050 V 13.000 C 236.950 13.050 237.000 13.000 236.950 13.000 H 231.050 C 231.000 13.000 231.050 13.050 231.050 13.000 V 10.050 C 231.050 10.022 231.028 10.000 231.000 10.000 H 225.000 C 224.972 10.000 224.950 10.022 224.950 10.050 V 13.000 C 224.950 13.050 225.000 13.000 224.950 13.000 H 219.050 C 219.000 13.000 219.050 13.050 219.050 13.000 V 10.050 C 219.050 10.022 219.028 10.000 219.000 10.000 H 213.000 C 212.972 10.000 212.950 10.022 212.950 10.050 V 13.000 C 212.950 13.050 213.000 13.000 212.950 13.000 H 207.050 C 207.000 13.000 207.050 13.050 207.050 13.000 V 10.050 C 207.050 10.022 207.028 10.000 207.000 10.000 H 201.000 C 200.972 10.000 200.950 10.022 200.950 10.050 V 13.000 C 200.950 13.050 201.000 13.000 200.950 13.000 H 195.050 C 195.000 13.000 195.050 13.050 195.050 13.000 V 10.050 C 195.050 10.022 195.028 10.000 195.000 10.000 H 189.000 C 188.972 10.000 188.950 10.022 188.950 10.050 V 13.000 C 188.950 13.050 189.000 13.000 188.950 13.000 H 183.050 C 183.000 13.000 183.050 13.050 183.050 13.000 V 10.050 C 183.050 10.022 183.028 10.000 183.000 10.000 H 177.000 C 176.972 10.000 176.950 10.022 176.950 10.050 V 13.000 C 176.950 13.050 177.000 13.000 176.950 13.000 H 171.000 C 170.972 13.000 170.950 13.022 170.950 13.050 V 23.000 C 170.950 23.050 171.000 23.000 170.950 23.000 H 168.000 C 167.972 23.000 167.950 23.022 167.950 23.050 V 29.050 C 167.950 29.078 167.972 29.100 168.000 29.100 H 170.950 C 171.000 29.100 170.950 29.050 170.950 29.100 V 35.000 C 170.950 35.050 171.000 35.000 170.950 35.000 H 168.000 C 167.972 35.000 167.950 35.022 167.950 35.050 V 41.050 C 167.950 41.078 167.972 41.100 168.000 41.100 H 170.950 C 171.000 41.100 170.950 41.050 170.950 41.100 V 47.000 C 170.950 47.050 171.000 47.000 170.950 47.000 H 168.000 C 167.972 47.000 167.950 47.022 167.950 47.050 V 53.050 C 167.950 53.078 167.972 53.100 168.000 53.100 H 170.950 C 171.000 53.100 170.950 53.050 170.950 53.100 V 63.050 C 170.950 63.078 170.972 63.100 171.000 63.100 Z"
       stroke="rgb(0,0,0)"
       stroke-width="0.10"
       id="path1024"
       style="stroke:#ff0000;stroke-opacity:1;stroke-width:0.1;stroke-dasharray:none" />
  </g>
  <rect
     style="fill:none;fill-rule:evenodd;stroke:#ff0000;stroke-width:0.1;stroke-dasharray:none;stroke-opacity:1"
     id="rect956"
     width="132"
     height="33"
     x="22.844036"
     y="21.549999" />
  <g
     id="g2662"
     transform="translate(157.1173,-0.26458322)">
    <g
       id="g2654"
       transform="matrix(1.0018327,0,0,0.99999614,-0.04748436,1.4811639e-4)">
      <path
         d="m 151.60208,48.814586 a 1.5,1.5 0 0 0 -3,0 1.5,1.5 0 0 0 3,0 z"
         style="fill:none;stroke:#ff0000;stroke-width:0.1;stroke-dasharray:none;stroke-opacity:1"
         id="path1664-3" />
      <path
         d="m 151.60208,27.81458 a 1.5,1.5 0 0 0 -3,0 1.5,1.5 0 0 0 3,0 z"
         style="fill:none;stroke:#ff0000;stroke-width:0.1;stroke-dasharray:none;stroke-opacity:1"
         id="path1666-8" />
    </g>
    <g
       id="g2650"
       transform="matrix(1.0018327,0,0,0.99999614,-0.04748436,1.4811639e-4)">
      <path
         d="m 28.932905,48.814586 a 1.5,1.5 0 0 0 -2.999994,0 1.5,1.5 0 0 0 2.999994,0 z"
         style="fill:none;stroke:#ff0000;stroke-width:0.1;stroke-dasharray:none;stroke-opacity:1"
         id="path1662-2" />
      <path
         d="m 28.932902,27.81458 a 1.5,1.5 0 0 0 -2.999988,0 1.5,1.5 0 0 0 2.999988,0 z"
         style="fill:none;stroke:#ff0000;stroke-width:0.1;stroke-dasharray:none;stroke-opacity:1"
         id="path1668-0" />
    </g>
  </g>
  <rect
     style="fill:none;fill-rule:evenodd;stroke:#ff0000;stroke-width:0.1;stroke-opacity:1;stroke-dasharray:none"
     id="rect2598"
     width="16.715559"
     height="8.8801403"
     x="187.64223"
     y="99.770981" />
  <g
     id="g2670"
     transform="translate(5.2916669)">
    <g
       id="g2596"
       transform="translate(0,-0.865907)"
       style="stroke:#ff0000;stroke-width:0.1;stroke-dasharray:none;stroke-opacity:1">
      <path
         d="m 180.8367,49.41591 a 1.5,1.5 0 0 0 -3,0 1.5,1.5 0 0 0 3,0 z"
         style="fill:none;stroke:#ff0000;stroke-width:0.1;stroke-dasharray:none;stroke-opacity:1"
         id="path1662" />
      <path
         d="m 223.3367,49.41591 a 1.5,1.5 0 0 0 -3,0 1.5,1.5 0 0 0 3,0 z"
         style="fill:none;stroke:#ff0000;stroke-width:0.1;stroke-dasharray:none;stroke-opacity:1"
         id="path1664" />
      <path
         d="m 223.3367,28.415904 a 1.5,1.5 0 0 0 -3,0 1.5,1.5 0 0 0 3,0 z"
         style="fill:none;stroke:#ff0000;stroke-width:0.1;stroke-dasharray:none;stroke-opacity:1"
         id="path1666" />
      <path
         d="m 180.8367,28.415904 a 1.5,1.5 0 0 0 -3,0 1.5,1.5 0 0 0 3,0 z"
         style="fill:none;stroke:#ff0000;stroke-width:0.1;stroke-dasharray:none;stroke-opacity:1"
         id="path1668" />
    </g>
    <ellipse
       style="fill:none;fill-rule:evenodd;stroke:#ff0000;stroke-width:0.1;stroke-dasharray:none;stroke-opacity:1"
       id="path2600"
       cx="179.43106"
       cy="43.878342"
       rx="1.3059031"
       ry="2.0894449" />
  </g>
</svg>
